<svg width="600" height="900" viewBox="0 0 600 900" fill="none" xmlns="http://www.w3.org/2000/svg">
<rect width="600" height="900" fill="white"/>
<rect width="600" height="900" fill="url(#paint0_linear_1_2)"/>
<path d="M67.384 237.776C67.384 239.995 66.904 241.915 65.944 243.536C64.9627 245.136 63.608 246.373 61.88 247.248C60.1307 248.101 58.1147 248.528 55.832 248.528C53.528 248.528 51.512 248.101 49.784 247.248C48.0347 246.373 46.6693 245.136 45.688 243.536C44.7067 241.915 44.216 239.995 44.216 237.776C44.216 235.109 44.8773 232.933 46.2 231.248C47.5013 229.563 49.3467 228.496 51.736 228.048L51.736 232.272C50.4773 232.571 49.4853 233.179 48.76 234.096C48.0347 235.013 47.672 236.251 47.672 237.808C47.672 239.216 48.0027 240.432 48.664 241.456C49.304 242.459 50.2427 243.237 51.48 243.792C52.696 244.325 54.1467 244.592 55.832 244.592C57.5173 244.592 58.968 244.325 60.184 243.792C61.3787 243.237 62.3067 242.459 62.968 241.456C63.608 240.432 63.928 239.216 63.928 237.808C63.928 236.251 63.5973 235.013 62.936 234.096C62.2533 233.179 61.3147 232.571 60.12 232.272L60.12 228.048C62.3813 228.475 64.1627 229.541 65.464 231.248C66.744 232.933 67.384 235.109 67.384 237.776ZM67.384 216.898C67.384 218.434 67.032 219.821 66.328 221.058C65.6027 222.274 64.6107 223.234 63.352 223.938C62.072 224.621 60.6107 224.962 58.968 224.962C57.2827 224.962 55.8107 224.61 54.552 223.906C53.272 223.202 52.28 222.242 51.576 221.026C50.8507 219.789 50.488 218.402 50.488 216.866C50.488 215.33 50.8507 213.954 51.576 212.738C52.28 211.501 53.2613 210.541 54.52 209.858C55.7787 209.154 57.2507 208.802 58.936 208.802C60.6213 208.802 62.0933 209.154 63.352 209.858C64.6107 210.562 65.6027 211.533 66.328 212.77C67.032 213.986 67.384 215.362 67.384 216.898ZM64.088 216.898C64.088 216.13 63.896 215.437 63.512 214.818C63.128 214.178 62.552 213.666 61.784 213.282C61.016 212.898 60.0667 212.706 58.936 212.706C57.8053 212.706 56.8667 212.898 56.12 213.282C55.352 213.645 54.776 214.146 54.392 214.786C54.008 215.405 53.816 216.098 53.816 216.866C53.816 217.613 54.008 218.306 54.392 218.946C54.776 219.586 55.352 220.098 56.12 220.482C56.8667 220.866 57.8053 221.058 58.936 221.058C60.0667 221.058 61.016 220.866 61.784 220.482C62.552 220.098 63.128 219.597 63.512 218.978C63.896 218.338 64.088 217.645 64.088 216.898ZM67 205.043L50.872 205.043L50.872 201.651L53.08 201.331C52.2693 200.819 51.64 200.147 51.192 199.315C50.7227 198.462 50.488 197.491 50.488 196.403C50.488 195.593 50.5947 194.867 50.808 194.227C51.0213 193.566 51.3413 192.99 51.768 192.499C52.1947 191.987 52.728 191.571 53.368 191.251C52.472 190.654 51.768 189.875 51.256 188.915C50.744 187.955 50.488 186.91 50.488 185.779C50.488 184.435 50.7653 183.294 51.32 182.355C51.8533 181.417 52.6533 180.702 53.72 180.211C54.7653 179.721 56.056 179.475 57.592 179.475L67 179.475L67 183.283L57.976 183.283C56.6107 183.283 55.5653 183.561 54.84 184.115C54.1147 184.67 53.752 185.491 53.752 186.579C53.752 187.326 53.9333 187.987 54.296 188.563C54.6587 189.118 55.192 189.555 55.896 189.875C56.5787 190.195 57.4213 190.355 58.424 190.355L67 190.355L67 194.163L57.976 194.163C56.6107 194.163 55.5653 194.441 54.84 194.995C54.1147 195.55 53.752 196.382 53.752 197.491C53.752 198.195 53.9333 198.835 54.296 199.411C54.6587 199.966 55.192 200.403 55.896 200.723C56.5787 201.043 57.4213 201.203 58.424 201.203L67 201.203L67 205.043ZM67 175.258L50.872 175.258L50.872 171.418L67 171.418L67 175.258ZM48.312 173.338C48.312 174.042 48.0987 174.629 47.672 175.098C47.224 175.546 46.68 175.77 46.04 175.77C45.3787 175.77 44.8453 175.546 44.44 175.098C44.0133 174.629 43.8 174.042 43.8 173.338C43.8 172.634 44.0133 172.058 44.44 171.61C44.8453 171.141 45.3787 170.906 46.04 170.906C46.68 170.906 47.224 171.141 47.672 171.61C48.0987 172.058 48.312 172.634 48.312 173.338ZM67 166.981L50.872 166.981L50.872 163.589L53.56 163.301C52.6213 162.81 51.8747 162.106 51.32 161.189C50.7653 160.272 50.488 159.184 50.488 157.925C50.488 156.624 50.7653 155.514 51.32 154.597C51.8533 153.68 52.6427 152.976 53.688 152.485C54.7333 151.973 56.0347 151.717 57.592 151.717L67 151.717L67 155.557L57.944 155.557C56.6 155.557 55.5653 155.856 54.84 156.453C54.1147 157.05 53.752 157.936 53.752 159.109C53.752 159.877 53.9333 160.57 54.296 161.189C54.6587 161.786 55.192 162.266 55.896 162.629C56.5787 162.97 57.4107 163.141 58.392 163.141L67 163.141L67 166.981ZM74.424 140.884C74.424 142.399 74.232 143.732 73.848 144.884C73.4853 146.015 72.92 146.9 72.152 147.54C71.4053 148.159 70.4667 148.468 69.336 148.468C68.6747 148.468 68.024 148.308 67.384 147.988C66.7653 147.647 66.1893 147.146 65.656 146.484C65.1013 145.802 64.6213 144.938 64.216 143.892L66.072 142.196C66.4347 143.22 66.872 143.935 67.384 144.34C67.896 144.746 68.4187 144.948 68.952 144.948C69.5067 144.948 69.9653 144.778 70.328 144.436C70.712 144.074 71 143.594 71.192 142.996C71.384 142.378 71.48 141.684 71.48 140.916C71.48 140.17 71.3733 139.519 71.16 138.964C70.968 138.41 70.6907 137.983 70.328 137.684C69.9653 137.364 69.528 137.204 69.016 137.204C68.376 137.204 67.8533 137.428 67.448 137.876C67.064 138.324 66.8293 139.21 66.744 140.532C66.6587 141.663 66.5413 142.655 66.392 143.508C66.2213 144.362 66.0293 145.098 65.816 145.716C65.6027 146.314 65.368 146.826 65.112 147.252C64.8347 147.679 64.5573 148.031 64.28 148.308L63.544 148.308L60.024 144.948L60.952 142.1L64.632 145.876L62.776 144.884C62.9253 144.671 63.064 144.458 63.192 144.244C63.32 144.01 63.4373 143.722 63.544 143.38C63.6293 143.018 63.7147 142.548 63.8 141.972C63.8853 141.396 63.9707 140.65 64.056 139.732C64.1627 138.303 64.4187 137.14 64.824 136.244C65.2293 135.348 65.7733 134.687 66.456 134.26C67.1387 133.834 67.96 133.62 68.92 133.62C69.8587 133.62 70.744 133.887 71.576 134.42C72.408 134.932 73.0907 135.722 73.624 136.788C74.1573 137.855 74.424 139.22 74.424 140.884ZM62.168 140.884C62.168 142.228 61.912 143.391 61.4 144.372C60.8667 145.332 60.1627 146.068 59.288 146.58C58.392 147.092 57.4107 147.348 56.344 147.348C55.256 147.348 54.2747 147.092 53.4 146.58C52.5253 146.068 51.8213 145.332 51.288 144.372C50.7547 143.391 50.488 142.228 50.488 140.884C50.488 139.54 50.7547 138.388 51.288 137.428C51.8213 136.468 52.5253 135.732 53.4 135.22C54.2747 134.708 55.256 134.452 56.344 134.452C57.4107 134.452 58.392 134.708 59.288 135.22C60.1627 135.732 60.8667 136.468 61.4 137.428C61.912 138.388 62.168 139.54 62.168 140.884ZM59.192 140.884C59.192 139.967 58.9467 139.231 58.456 138.676C57.9653 138.122 57.2613 137.844 56.344 137.844C55.4267 137.844 54.7333 138.122 54.264 138.676C53.7733 139.231 53.528 139.967 53.528 140.884C53.528 141.802 53.7733 142.548 54.264 143.124C54.7333 143.7 55.4267 143.988 56.344 143.988C57.2613 143.988 57.9653 143.7 58.456 143.124C58.9467 142.548 59.192 141.802 59.192 140.884ZM53.688 138.228L50.872 138.964L50.872 132.34L53.272 132.34L53.688 138.228ZM67.384 113.489C67.384 115.111 67.096 116.551 66.52 117.809C65.944 119.068 65.1227 120.049 64.056 120.753C62.9893 121.457 61.72 121.82 60.248 121.841L60.248 117.777C60.9947 117.777 61.6667 117.607 62.264 117.265C62.84 116.903 63.2987 116.412 63.64 115.793C63.9813 115.153 64.152 114.385 64.152 113.489C64.152 112.721 64.0347 112.06 63.8 111.505C63.544 110.929 63.192 110.492 62.744 110.193C62.2747 109.873 61.7307 109.713 61.112 109.713C60.408 109.713 59.832 109.884 59.384 110.225C58.9147 110.545 58.52 110.993 58.2 111.569C57.88 112.145 57.6027 112.807 57.368 113.553C57.112 114.3 56.8453 115.089 56.568 115.921C55.9707 117.692 55.2133 119.025 54.296 119.921C53.3573 120.817 52.1093 121.265 50.552 121.265C49.2507 121.265 48.1307 120.956 47.192 120.337C46.2533 119.719 45.528 118.855 45.016 117.745C44.4827 116.615 44.216 115.313 44.216 113.841C44.216 112.348 44.4827 111.047 45.016 109.937C45.5493 108.807 46.296 107.921 47.256 107.281C48.1947 106.62 49.3253 106.279 50.648 106.257L50.648 110.353C50.0933 110.375 49.5813 110.524 49.112 110.801C48.6213 111.079 48.2267 111.484 47.928 112.017C47.608 112.529 47.448 113.159 47.448 113.905C47.4267 114.545 47.5333 115.121 47.768 115.633C47.9813 116.124 48.3013 116.519 48.728 116.817C49.1333 117.095 49.6453 117.233 50.264 117.233C50.8613 117.233 51.3627 117.105 51.768 116.849C52.152 116.572 52.4827 116.177 52.76 115.665C53.016 115.153 53.2613 114.556 53.496 113.873C53.7307 113.191 53.9867 112.444 54.264 111.633C54.6267 110.524 55.0747 109.521 55.608 108.625C56.12 107.708 56.792 106.983 57.624 106.449C58.456 105.916 59.5333 105.649 60.856 105.649C62.008 105.649 63.0853 105.948 64.088 106.545C65.0693 107.143 65.8693 108.017 66.488 109.169C67.0853 110.321 67.384 111.761 67.384 113.489ZM67.384 94.5235C67.384 96.0595 67.032 97.4462 66.328 98.6835C65.6027 99.8995 64.6107 100.859 63.352 101.563C62.072 102.246 60.6107 102.587 58.968 102.587C57.2827 102.587 55.8107 102.235 54.552 101.531C53.272 100.827 52.28 99.8675 51.576 98.6515C50.8507 97.4142 50.488 96.0275 50.488 94.4915C50.488 92.9555 50.8507 91.5795 51.576 90.3635C52.28 89.1262 53.2613 88.1662 54.52 87.4835C55.7787 86.7795 57.2507 86.4275 58.936 86.4275C60.6213 86.4275 62.0933 86.7795 63.352 87.4835C64.6107 88.1875 65.6027 89.1582 66.328 90.3955C67.032 91.6115 67.384 92.9875 67.384 94.5235ZM64.088 94.5235C64.088 93.7555 63.896 93.0622 63.512 92.4435C63.128 91.8035 62.552 91.2915 61.784 90.9075C61.016 90.5235 60.0667 90.3315 58.936 90.3315C57.8053 90.3315 56.8667 90.5235 56.12 90.9075C55.352 91.2702 54.776 91.7715 54.392 92.4115C54.008 93.0302 53.816 93.7235 53.816 94.4915C53.816 95.2382 54.008 95.9315 54.392 96.5715C54.776 97.2115 55.352 97.7235 56.12 98.1075C56.8667 98.4915 57.8053 98.6835 58.936 98.6835C60.0667 98.6835 61.016 98.4915 61.784 98.1075C62.552 97.7235 63.128 97.2222 63.512 96.6035C63.896 95.9635 64.088 95.2702 64.088 94.5235ZM67.384 75.1485C67.384 76.6845 67.032 78.0712 66.328 79.3085C65.6027 80.5245 64.6107 81.4845 63.352 82.1885C62.072 82.8712 60.6107 83.2125 58.968 83.2125C57.2827 83.2125 55.8107 82.8605 54.552 82.1565C53.272 81.4525 52.28 80.4925 51.576 79.2765C50.8507 78.0392 50.488 76.6525 50.488 75.1165C50.488 73.5805 50.8507 72.2045 51.576 70.9885C52.28 69.7512 53.2613 68.7912 54.52 68.1085C55.7787 67.4045 57.2507 67.0525 58.936 67.0525C60.6213 67.0525 62.0933 67.4045 63.352 68.1085C64.6107 68.8125 65.6027 69.7832 66.328 71.0205C67.032 72.2365 67.384 73.6125 67.384 75.1485ZM64.088 75.1485C64.088 74.3805 63.896 73.6872 63.512 73.0685C63.128 72.4285 62.552 71.9165 61.784 71.5325C61.016 71.1485 60.0667 70.9565 58.936 70.9565C57.8053 70.9565 56.8667 71.1485 56.12 71.5325C55.352 71.8952 54.776 72.3965 54.392 73.0365C54.008 73.6552 53.816 74.3485 53.816 75.1165C53.816 75.8632 54.008 76.5565 54.392 77.1965C54.776 77.8365 55.352 78.3485 56.12 78.7325C56.8667 79.1165 57.8053 79.3085 58.936 79.3085C60.0667 79.3085 61.016 79.1165 61.784 78.7325C62.552 78.3485 63.128 77.8472 63.512 77.2285C63.896 76.5885 64.088 75.8952 64.088 75.1485ZM67 63.2935L50.872 63.2935L50.872 59.9015L53.56 59.6135C52.6213 59.1228 51.8747 58.4188 51.32 57.5015C50.7653 56.5842 50.488 55.4962 50.488 54.2375C50.488 52.9362 50.7653 51.8268 51.32 50.9095C51.8533 49.9922 52.6427 49.2882 53.688 48.7975C54.7333 48.2855 56.0347 48.0295 57.592 48.0295L67 48.0295L67 51.8695L57.944 51.8695C56.6 51.8695 55.5653 52.1682 54.84 52.7655C54.1147 53.3628 53.752 54.2482 53.752 55.4215C53.752 56.1895 53.9333 56.8828 54.296 57.5015C54.6587 58.0988 55.192 58.5788 55.896 58.9415C56.5787 59.2828 57.4107 59.4535 58.392 59.4535L67 59.4535L67 63.2935Z" fill="white"/>
<defs>
<linearGradient id="paint0_linear_1_2" x1="-13.5827" y1="-36.5854" x2="799.596" y2="247.478" gradientUnits="userSpaceOnUse">
<stop offset="0.936274" stop-color="#232323"/>
<stop offset="0.501275" stop-color="#101010"/>
<stop stop-color="#101010"/>
</linearGradient>
</defs>
</svg>
